<svg width="28" height="28" viewBox="0 0 28 28" fill="none" xmlns="http://www.w3.org/2000/svg">
<rect width="28" height="28" rx="14" fill="#323232"/>
<path fill-rule="evenodd" clip-rule="evenodd" d="M5.90281 13.7928C10.2547 11.8968 13.1566 10.6468 14.6085 10.0429C18.7542 8.31856 19.6157 8.01903 20.1771 8.00914C20.3006 8.00696 20.5768 8.03757 20.7556 8.1827C20.9066 8.30524 20.9482 8.47078 20.9681 8.58697C20.988 8.70315 21.0127 8.96783 20.993 9.17464C20.7684 11.5351 19.7963 17.2634 19.3018 19.9072C19.0925 21.0258 18.6805 21.4009 18.2816 21.4376C17.4147 21.5174 16.7564 20.8647 15.9167 20.3143C14.6029 19.4531 13.8606 18.9169 12.5853 18.0765C11.1114 17.1053 12.0669 16.5714 12.9068 15.699C13.1266 15.4707 16.9462 11.9965 17.0201 11.6813C17.0294 11.6419 17.038 11.495 16.9507 11.4174C16.8634 11.3398 16.7346 11.3664 16.6416 11.3875C16.5098 11.4174 14.4109 12.8047 10.3449 15.5494C9.74908 15.9585 9.20945 16.1578 8.72596 16.1474C8.19295 16.1359 7.16765 15.846 6.40545 15.5982C5.47058 15.2943 4.72756 15.1337 4.79226 14.6176C4.82596 14.3488 5.19614 14.0738 5.90281 13.7928Z" fill="white"/>
</svg>
